<?xml version="1.0" encoding="UTF-8" standalone="no"?>
<svg
   xmlns:dc="http://purl.org/dc/elements/1.1/"
   xmlns:cc="http://creativecommons.org/ns#"
   xmlns:rdf="http://www.w3.org/1999/02/22-rdf-syntax-ns#"
   xmlns:svg="http://www.w3.org/2000/svg"
   xmlns="http://www.w3.org/2000/svg"
   xmlns:sodipodi="http://sodipodi.sourceforge.net/DTD/sodipodi-0.dtd"
   xmlns:inkscape="http://www.inkscape.org/namespaces/inkscape"
   enable-background="new 0 0 64 64"
   viewBox="0 0 64 64"
   id="svg3348"
   version="1.1"
   inkscape:version="0.91 r13725"
   sodipodi:docname="1442640788_social_32.svg">
  <metadata
     id="metadata3356">
    <rdf:RDF>
      <cc:Work
         rdf:about="">
        <dc:format>image/svg+xml</dc:format>
        <dc:type
           rdf:resource="http://purl.org/dc/dcmitype/StillImage" />
        <dc:title></dc:title>
      </cc:Work>
    </rdf:RDF>
  </metadata>
  <defs
     id="defs3354" />
  <sodipodi:namedview
     pagecolor="#ffffff"
     bordercolor="#666666"
     borderopacity="1"
     objecttolerance="10"
     gridtolerance="10"
     guidetolerance="10"
     inkscape:pageopacity="0"
     inkscape:pageshadow="2"
     inkscape:window-width="1440"
     inkscape:window-height="838"
     id="namedview3352"
     showgrid="false"
     inkscape:zoom="9.984375"
     inkscape:cx="31.098592"
     inkscape:cy="32"
     inkscape:window-x="-8"
     inkscape:window-y="-8"
     inkscape:window-maximized="1"
     inkscape:current-layer="svg3348" />
  <path
     d="m 17.45,10.442 c 0.267,-0.534 -0.79,-0.904 -1.208,-0.534 -1.565,1.38 -1.7,6.007 -1.207,7.163 0.492,1.158 1.386,3.783 2.19,4.14 0.806,0.355 1.387,-0.045 1.387,-0.49 0,-0.445 -1.878,-2.225 -2.28,-4.36 -0.403,-2.137 0.85,-5.385 1.117,-5.918 z m 21.1,3.025 c 0,0.578 0.493,0.8 0.85,0.667 0.358,-0.133 0.58,-0.534 0.626,-1.913 0.045,-1.378 -1.61,-3.914 -2.46,-4.582 -0.848,-0.667 -1.488,-1.04 -1.877,-0.756 -0.672,0.49 1.16,2.18 2.19,3.38 1.03,1.203 0.67,2.627 0.67,3.205 z m -4.246,8.9 c 1.162,-2.315 0.268,-7.253 -2.28,-12.237 -2.548,-4.983 -6.438,-4.672 -7.556,-4.182 -5.99,2.625 -5.678,6.763 -4.918,9.522 0.76,2.76 2.772,7.742 7.02,9.344 4.247,1.6 6.57,-0.135 7.734,-2.448 z m -12.34,-6.542 c -0.535,-2.536 0.403,-4.894 2.37,-5.65 1.758,-0.677 4.47,-0.312 6.617,2.49 2.147,2.802 2.952,6.986 1.88,9.167 -1.074,2.18 -3.22,2.848 -5.232,1.78 -2.012,-1.068 -5.097,-5.25 -5.633,-7.787 z m 14.754,17.04 c -0.94,-4.582 3.04,-5.472 5.052,-8.23 2.012,-2.76 3.13,-6.985 2.95,-9.3 C 44.542,13.022 42.8,8.395 42.843,7.772 42.888,7.149 47.223,4.124 47.537,3.679 47.85,3.233 48.163,2.209 47.85,1.409 47.537,0.609 46.91,0.609 45.168,0.564 43.424,0.52 32.918,-0.148 28.626,0.03 24.334,0.208 19.863,1.365 16.376,3.056 12.889,4.746 9.893,7.416 8.239,11.02 6.585,14.624 6.405,17.027 7.567,21.565 c 1.162,4.538 4.65,7.252 6.393,8.587 1.745,1.335 8.406,2.27 8.898,2.492 0,0 0.134,0.49 0.224,1.112 0.09,0.623 0.447,1.157 0.447,1.157 0,0 -0.225,0.178 -1.297,0.267 -1.073,0.09 -5.23,1.29 -8.63,3.515 -3.397,2.225 -8.136,6.318 -7.555,10.812 0.582,4.493 1.655,7.608 5.857,10.767 4.202,3.16 8.405,4.227 15.782,3.515 7.377,-0.713 12.965,-4.762 15.2,-8.544 2.235,-3.782 2.235,-7.43 0.715,-11.48 -1.52,-4.048 -5.945,-6.317 -6.884,-10.9 z m 5.454,16.02 c -0.358,-0.223 -3.8,-3.116 -4.74,-3.427 -0.938,-0.31 -1.25,-0.534 -1.43,-0.133 -0.18,0.4 -0.313,0.98 0.313,1.112 0.626,0.133 3.666,2.358 4.292,2.76 0.626,0.4 1.207,0.444 1.252,0.933 0.044,0.49 -0.046,1.335 -0.314,1.157 -0.268,-0.178 -4.515,-3.56 -4.784,-3.515 -0.268,0.045 -0.984,0.667 -0.58,0.98 0.4,0.31 4.65,3.29 4.65,3.736 0,0.446 -0.27,0.934 -0.448,0.89 -0.18,-0.044 -4.247,-3.337 -4.515,-3.114 -0.27,0.222 -0.85,0.89 -0.672,0.98 0.18,0.088 3.666,2.67 3.62,2.936 -0.044,0.267 -0.76,1.2 -0.983,0.934 -0.224,-0.267 -2.46,-2.67 -2.86,-2.625 -0.403,0.044 -0.806,0.533 -0.716,0.71 0.088,0.18 2.547,2.315 2.458,2.537 -0.09,0.222 -0.805,0.49 -0.805,0.49 0,0 -2.28,-1.914 -2.682,-1.825 -0.4,0.09 -0.893,0.534 -0.67,0.712 0.224,0.178 2.19,1.646 2.056,1.824 -0.134,0.178 -1.207,0.578 -1.207,0.578 0,0 -1.79,-2.002 -2.192,-1.69 -0.402,0.31 -0.984,0.266 -0.715,0.577 0.268,0.31 1.475,1.78 1.207,2.002 -0.268,0.222 -5.41,1.157 -10.774,0.712 -5.365,-0.445 -9.39,-2.002 -11.132,-4.36 -1.744,-2.358 -2.46,-6.05 -1.878,-8.365 0.58,-2.314 4.158,-5.562 7.153,-7.297 2.994,-1.735 7.957,-2.937 8.672,-3.026 0.715,-0.09 1.475,-0.446 1.34,-1.202 -0.133,-0.756 -0.893,-2.18 -0.312,-3.115 0.58,-0.934 2.817,-2.892 2.37,-3.337 -0.448,-0.445 -0.895,-0.267 -3.98,-0.49 -3.085,-0.223 -8.897,-1.156 -10.82,-2.624 -1.92,-1.468 -4.157,-4.538 -3.933,-10.19 0.085,-2.14 1.967,-6.362 4.65,-8.586 2.682,-2.225 8.45,-4.05 10.82,-4.583 2.37,-0.534 8.18,-0.356 11.355,-0.31 3.174,0.044 9.7,-0.09 9.925,0.22 0.224,0.312 -4.56,2.982 -4.828,3.338 -0.27,0.357 -0.448,1.425 0.088,2.537 0.536,1.112 1.386,4.227 1.7,5.65 0.312,1.425 -0.046,2.404 -0.046,2.404 0,0 -1.7,-1.645 -1.878,-1.378 -0.18,0.267 -0.894,0.8 -0.447,1.023 0.447,0.222 1.878,1.69 1.967,1.913 0.09,0.223 0.224,1.602 -0.045,1.424 -0.27,-0.178 -2.64,-2.892 -2.996,-2.625 -0.358,0.267 -1.028,0.4 -0.492,0.8 0.536,0.4 3.13,2.85 3.13,3.116 0,0.267 -0.225,1.29 -0.537,1.246 -0.313,-0.046 -3.487,-3.427 -3.8,-3.294 -0.313,0.133 -0.67,0.49 -0.536,0.712 0.133,0.222 3.53,3.47 3.486,3.693 -0.045,0.224 -0.76,1.113 -0.94,1.07 -0.178,-0.045 -2.77,-2.893 -2.95,-2.76 -0.18,0.133 -0.626,0.8 -0.402,1.023 0.224,0.223 2.46,2.447 2.37,2.67 -0.09,0.223 -0.493,0.89 -0.895,0.845 -0.403,-0.045 -1.834,-1.69 -2.147,-1.602 -0.313,0.09 -0.94,0.267 -0.715,0.623 0.224,0.355 1.878,1.823 1.744,2.046 -0.134,0.222 -1.386,1.602 -1.61,2.358 -0.223,0.756 -0.357,1.69 -0.357,1.69 0,0 -2.95,-2.357 -3.22,-2.224 -0.27,0.133 -0.58,0.845 -0.312,1.023 0.268,0.178 2.86,1.958 2.906,2.09 0.044,0.134 0.357,1.024 0.088,0.89 -0.268,-0.132 -2.37,-1.78 -2.504,-1.512 -0.134,0.268 0.134,1.07 0.268,1.247 0.134,0.178 2.46,1.69 2.593,2.002 0.134,0.31 0.536,1.78 0.536,1.78 0,0 -2.234,-1.914 -2.413,-1.514 -0.18,0.4 0,1.023 0.313,1.2 0.313,0.18 3.532,2.003 3.98,2.448 0.448,0.445 0.535,1.068 0.535,1.068 0,0 -0.94,0.756 -0.67,0.98 0.267,0.22 3.173,1.734 4.246,2.67 1.074,0.933 1.566,2.046 1.566,2.402 0,0.356 -0.268,0.445 -0.268,0.445 0,0 -4.47,-3.872 -5.365,-3.738 -0.894,0.133 -0.58,0.8 -0.224,1.157 0.357,0.355 5.006,3.647 5.453,3.96 0.447,0.31 0.85,0.577 0.85,0.89 0.003,0.31 0.137,1.466 -0.22,1.244 z M 14.588,42.833 c -0.18,-0.356 -0.67,-0.356 -2.28,0.445 -1.61,0.8 -2.727,2.58 -3.264,3.515 -0.536,0.934 -0.268,3.782 -0.045,3.915 0,0 0.49,0.133 1.072,0.09 0.58,-0.046 0.313,-3.205 0.76,-4.272 0.447,-1.068 2.46,-2.225 3.264,-2.536 0.805,-0.312 0.67,-0.8 0.492,-1.157 z m 5.99,-2.136 c -3.71,1.157 -6.036,4.193 -7.107,5.473 -2.68,3.204 -0.714,6.63 1.253,8.365 1.967,1.735 4.515,2.403 9.433,2.27 4.918,-0.134 8.36,-2.938 9.88,-6.186 1.52,-3.25 0,-5.74 -2.1,-7.832 -2.103,-2.09 -7.647,-3.248 -11.357,-2.09 z m 9.97,12.325 c -2.37,1.29 -6.214,2.447 -9.076,2.447 -2.86,0 -6.17,-2.36 -5.9,-4.628 0.27,-2.268 1.564,-4.27 2.816,-4.983 1.57,-0.894 5.544,-2.493 8.807,-2.36 3.264,0.134 5.14,2.626 5.544,4.406 0.4,1.78 0.178,3.825 -2.192,5.116 z"
     id="path3350"
     style="fill:#000000"
     inkscape:export-xdpi="90"
     inkscape:export-ydpi="90"
     inkscape:connector-curvature="0"
     sodipodi:nodetypes="ccccsccccccccccccccccccccscscccccccscscsscccccccccscccccccccsccscccccccccccscccsccccccccscccccccscccccccsscscccsssccccccssccscccccscccsccccccccccccccccccsccccccssccccc" />
</svg>
